Coordinates
version=1
nRows=19
nColumns=27
inDegrees=yes

Units are S.I. units (second, meters, Newtons, ...)
If the header above contains a line with 'inDegrees', this indicates whether rotational values are in degrees (yes) or radians (no).

endheader
time	pelvis_rotation	pelvis_tilt	pelvis_list	pelvis_tx	pelvis_ty	pelvis_tz	hip_flexion_r	hip_adduction_r	hip_rotation_r	knee_angle_r	knee_rotation_r	knee_adduction_r	knee_angle_r_beta	ankle_angle_r	subtalar_angle_r	mtp_angle_r	hip_flexion_l	hip_adduction_l	hip_rotation_l	knee_angle_l	knee_rotation_l	knee_adduction_l	knee_angle_l_beta	ankle_angle_l	subtalar_angle_l	mtp_angle_l
      0.74000000	      5.72877350	    -47.45005056	      4.46332680	     -0.09103280	      0.71314238	     -1.20373684	    108.70411072	    -13.78093818	     -7.61591571	     79.79130810	     -9.30351797	      8.57124833	      1.39262104	     12.99351136	    -10.34028958	      0.00000000	    107.47270653	     -7.12214833	     -8.40780893	     76.43197928	     -9.69373081	     -9.55615099	      1.33398969	     13.63386158	      0.83764736	      0.00000000
      0.74500000	      6.69902316	    -47.50111566	      5.16869997	     -0.09110689	      0.71354589	     -1.20448712	    108.90039925	    -14.62260225	     -7.47132486	     79.87999311	     -9.29486371	      8.58987673	      1.39416889	     13.09500523	    -10.01519311	      0.00000000	    107.43859110	     -6.27208052	     -8.52577818	     76.18365120	     -9.69239580	     -9.54796628	      1.32965555	     13.44696056	      0.57031090	      0.00000000
      0.75000000	      6.46035673	    -47.51547237	      5.03541042	     -0.09119375	      0.71422988	     -1.20428799	    108.79577961	    -14.38147461	     -7.49446289	     79.70282921	     -9.29805018	      8.58076168	      1.39107679	     12.96636420	    -10.11277072	      0.00000000	    107.36036871	     -6.47358574	     -8.54370216	     76.07012010	     -9.69145350	     -9.55060355	      1.32767406	     13.37383109	      0.64171356	      0.00000000
      0.75500000	      5.54278883	    -47.49618527	      4.50515478	     -0.09147748	      0.71419503	     -1.20345787	    108.67569370	    -13.54203771	     -6.96610270	     79.60655247	     -8.81619992	      7.94724392	      1.38939645	     12.89344889	     -9.88819270	      0.00000000	    107.35106723	     -7.35786781	     -8.29808469	     76.22434136	     -9.42070838	     -9.20719146	      1.33036573	     13.54339254	      1.18357080	      0.00000000
      0.76000000	      6.74676337	    -47.49246118	      5.23327124	     -0.09124277	      0.71559187	     -1.20447130	    108.64063450	    -14.63309915	     -7.52521416	     79.47199241	     -9.29113256	      8.59484019	      1.38704793	     12.89502782	     -9.96282134	      0.00000000	    107.13799207	     -6.22200200	     -8.62763733	     75.73454695	     -9.68863969	     -9.54272070	      1.32181720	     13.28193696	      0.63511904	      0.00000000
      0.76500000	      5.73997903	    -47.52693162	      4.60447164	     -0.09159118	      0.71558152	     -1.20354156	    108.54520071	    -13.71461361	     -7.03514493	     79.35445994	     -8.80782347	      7.95839720	      1.38499660	     12.81570203	     -9.76133189	      0.00000000	    107.19546368	     -7.17193517	     -8.31461058	     75.89812318	     -9.41259557	     -9.19357369	      1.32467215	     13.45025993	      1.26384826	      0.00000000
      0.77000000	      6.78892860	    -47.51180101	      5.25553110	     -0.09132263	      0.71710043	     -1.20444207	    108.47065129	    -14.66446768	     -7.60788959	     79.17814624	     -9.28731512	      8.60373735	      1.38191935	     12.76343897	     -9.91378721	      0.00000000	    106.94926329	     -6.17592517	     -8.66587622	     75.40312884	     -9.68402060	     -9.54184377	      1.31603286	     13.14925883	      0.68568008	      0.00000000
      0.77500000	      6.83212523	    -47.42429532	      5.29922906	     -0.09132073	      0.71788482	     -1.20445152	    108.29237023	    -14.70944138	     -7.64174298	     79.03700150	     -9.29009281	      8.58561560	      1.37945591	     12.63228704	     -9.89065517	      0.00000000	    106.74290805	     -6.13524618	     -8.72898653	     75.22798919	     -9.68118725	     -9.54519202	      1.31297610	     13.13224021	      0.66312789	      0.00000000
      0.78000000	      5.89265725	    -47.49383510	      4.62411565	     -0.09128466	      0.71894900	     -1.20364502	    108.02601143	    -13.85836630	     -7.82148381	     78.65580287	     -9.28922600	      8.61142837	      1.37280274	     12.51896515	    -10.15816795	      0.00000000	    106.68919615	     -6.97980061	     -8.67865172	     75.16351812	     -9.67463026	     -9.54449430	      1.31185087	     13.20748113	      1.08277840	      0.00000000
      0.78500000	      6.71808892	    -47.57376379	      5.39117429	     -0.09179225	      0.71877928	     -1.20412387	    108.39302974	    -14.51585406	     -6.94294659	     78.88117631	     -8.76499076	      8.00643443	      1.37673624	     12.63506642	     -9.45639585	      0.00000000	    106.74967299	     -6.34122623	     -8.60480597	     75.03693895	     -9.40005391	     -9.17717442	      1.30964165	     13.02250261	      1.09274063	      0.00000000
      0.79000000	      5.95782808	    -47.47433020	      4.76587205	     -0.09139858	      0.72067394	     -1.20361553	    107.83142158	    -13.87118717	     -7.78728756	     78.32498327	     -9.27666973	      8.59624865	      1.36702884	     12.32805289	    -10.08878180	      0.00000000	    106.39847524	     -6.94663336	     -8.85617688	     74.75139302	     -9.67238909	     -9.54892290	      1.30465793	     12.98800030	      1.09138809	      0.00000000
      0.79500000	      6.94861595	    -47.53743418	      5.38602078	     -0.09147715	      0.72143419	     -1.20431382	    107.95044480	    -14.75750723	     -7.78694471	     78.32547108	     -9.26840966	      8.62803695	      1.36703736	     12.38703298	     -9.79056990	      0.00000000	    106.35987096	     -6.05240334	     -8.87197522	     74.43577210	     -9.67065854	     -9.53967026	      1.29914930	     12.78348652	      0.80591039	      0.00000000
      0.80000000	      6.85416215	    -47.64990482	      5.45467480	     -0.09192553	      0.72143839	     -1.20404899	    108.13090465	    -14.61215254	     -7.08471994	     78.36075256	     -8.74298192	      8.02991894	      1.36765314	     12.39538373	     -9.39318860	      0.00000000	    106.46940623	     -6.23042723	     -8.67905428	     74.44743167	     -9.38140006	     -9.17644259	      1.29935280	     12.78040146	      1.16357776	      0.00000000
      0.80500000	      6.87846061	    -47.55316545	      5.39008324	     -0.09154898	      0.72330415	     -1.20416274	    107.72263276	    -14.65680921	     -7.82011359	     77.93578814	     -9.25144633	      8.64132434	      1.36023611	     12.21198657	     -9.77565734	      0.00000000	    106.10349054	     -6.14817968	     -9.01264975	     74.03226889	     -9.66389209	     -9.54364662	      1.29210684	     12.62884151	      0.92283018	      0.00000000
      0.81000000	      6.38285540	    -47.50960194	      5.04912495	     -0.09154767	      0.72429457	     -1.20372500	    107.45429766	    -14.20909191	     -7.92650244	     77.65504533	     -9.26045787	      8.62804770	      1.35533622	     12.06622142	     -9.88575981	      0.00000000	    105.92309682	     -6.59675792	     -9.04449841	     73.88884137	     -9.65944843	     -9.54938218	      1.28960356	     12.59678963	      1.11073174	      0.00000000
      0.81500000	      6.04011641	    -47.57535243	      5.09943517	     -0.09198913	      0.72433127	     -1.20323607	    107.59662594	    -13.79218433	     -7.07352130	     77.65947386	     -8.72494747	      8.01672242	      1.35541351	     12.00442845	     -9.59974085	      0.00000000	    105.94183835	     -7.06610536	     -9.03447245	     73.91455738	     -9.36616277	     -9.20024857	      1.29005239	     12.62531450	      1.52385896	      0.00000000
      0.82000000	      7.09457271	    -47.56147942	      5.56654665	     -0.09166962	      0.72605248	     -1.20414889	    107.40903291	    -14.79840999	     -7.90426005	     77.40694651	     -9.24013170	      8.65929531	      1.35100608	     11.99255031	     -9.69043446	      0.00000000	    105.71562867	     -6.00320845	     -9.19526358	     73.37914354	     -9.65503880	     -9.54872860	      1.28070766	     12.34407934	      1.01437149	      0.00000000
      0.82500000	      6.71614443	    -47.52304611	      5.31294239	     -0.09168668	      0.72701117	     -1.20380424	    107.17386280	    -14.44543936	     -7.97341966	     77.15128787	     -9.24129350	      8.64960682	      1.34654400	     11.84730273	     -9.78556987	      0.00000000	    105.54002550	     -6.35748706	     -9.24958300	     73.22314272	     -9.65047770	     -9.55180340	      1.27798493	     12.33003750	      1.19724652	      0.00000000
      0.83000000	      7.32776942	    -47.54625504	      5.65013187	     -0.09175039	      0.72783407	     -1.20421721	    107.16157030	    -15.00892373	     -8.05613206	     77.07077894	     -9.23378767	      8.66936218	      1.34513885	     11.87160864	     -9.60779315	      0.00000000	    105.47217594	     -5.81076845	     -9.23271569	     72.95397525	     -9.64750290	     -9.54994608	      1.27328707	     12.16241728	      1.08920349	      0.00000000
